<svg enable-background="new 0 0 100 100" height="100" viewBox="0 0 100 100" width="100" xmlns="http://www.w3.org/2000/svg"><path d="m90 46.666-26.667 26.667-16.666-16.666 4.714-4.714 11.952 11.953 21.953-21.953z"/><path d="m79.899 73.434-.727-6.513-6.035 6.034.137 1.215c.277 2.496-.413 4.811-1.939 6.517-1.527 1.706-3.75 2.646-6.264 2.646h-40.144c-2.511 0-4.735-.94-6.261-2.646-1.528-1.706-2.217-4.021-1.938-6.517l4.167-37.503h6.44l-.667 6.666h6.701l.667-6.666h21.932l.668 6.666h6.698l-.664-6.666h6.436l1.205 10.836 6.038-6.038-1.278-11.465h-13.072l-1.003-10.049c-.547-5.473-5.494-9.951-10.996-9.951h-10c-5.5 0-10.448 4.478-10.995 9.951l-1.005 10.049h-13.073l-4.826 43.434c-1.012 9.111 5.66 16.566 14.826 16.566h40.144c9.167 0 15.84-7.455 14.828-16.566zm-44.259-52.821c.207-2.065 2.285-3.946 4.36-3.946h10c2.077 0 4.157 1.881 4.362 3.946l.938 9.387h-20.599z"/></svg>