<svg viewBox="0 0 400 300" xmlns="http://www.w3.org/2000/svg"><ellipse cx="200.05" cy="260.04" fill="#d1d3d4" rx="116.46" ry="2.67"/><rect fill="#231f20" height="221.33" rx="12.08" width="105.91" x="207.2" y="37.28"/><path d="m301 37.28a12.08 12.08 0 0 1 12.08 12.08v197.17a12.08 12.08 0 0 1 -12.08 12.08h-81.72a12.08 12.08 0 0 1 -12.08-12.08v-197.17a12.08 12.08 0 0 1 12.08-12.08zm0-1h-81.72a13.09 13.09 0 0 0 -13.08 13.08v197.17a13.1 13.1 0 0 0 13.08 13.08h81.72a13.09 13.09 0 0 0 13.07-13.08v-197.17a13.08 13.08 0 0 0 -13.07-13.07z" fill="#231f20"/><rect fill="#68e1fd" height="212.79" rx="10.7" width="97.51" x="211.4" y="41.55"/><path d="m206.28 75.71-1.4-.49v-9.84l1.4-.49z" fill="#231f20"/><path d="m206.28 76.21a.51.51 0 0 1 -.17 0l-1.4-.49a.5.5 0 0 1 -.33-.47v-9.87a.5.5 0 0 1 .33-.47l1.4-.49a.53.53 0 0 1 .46.06.52.52 0 0 1 .21.41v10.82a.49.49 0 0 1 -.5.5zm-.91-1.35.41.15v-9.42l-.41.15z" fill="#231f20"/><path d="m313.55 113.92 1.41-1.27v-25.47l-1.41-1.28z" fill="#231f20"/><path d="m313.55 114.42a.51.51 0 0 1 -.2 0 .5.5 0 0 1 -.29-.46v-28a.49.49 0 0 1 .29-.45.51.51 0 0 1 .54.08l1.4 1.28a.48.48 0 0 1 .17.37v25.47a.5.5 0 0 1 -.17.37l-1.4 1.27a.5.5 0 0 1 -.34.07zm.5-27.39v25.77l.41-.37v-25z" fill="#231f20"/><path d="m206.28 101.59-1.4-.53v-15.04l1.4-.54z" fill="#231f20"/><path d="m206.28 102.09a.57.57 0 0 1 -.18 0l-1.4-.54a.48.48 0 0 1 -.32-.46v-15.09a.5.5 0 0 1 .32-.47l1.4-.53a.5.5 0 0 1 .68.46v16.11a.49.49 0 0 1 -.22.41.47.47 0 0 1 -.28.11zm-.91-1.38.41.16v-14.66l-.41.15z" fill="#231f20"/><path d="m206.28 121.53-1.4-.53v-15.04l1.4-.54z" fill="#231f20"/><path d="m206.28 122a.39.39 0 0 1 -.18 0l-1.4-.53a.48.48 0 0 1 -.32-.46v-15.01a.5.5 0 0 1 .32-.47l1.4-.53a.5.5 0 0 1 .68.46v16.11a.49.49 0 0 1 -.22.41.47.47 0 0 1 -.28.02zm-.91-1.38.41.16v-14.63l-.41.15z" fill="#231f20"/><path d="m205.58 101.59h.7v3.83h-.7z" fill="#231f20"/><rect fill="#231f20" height="4.83" rx=".5" width="1.7" x="205.08" y="101.09"/><path d="m230.49 163.75a.45.45 0 0 1 -.31-.12.46.46 0 0 1 0-.65l65.28-70.46a.46.46 0 0 1 .64 0 .45.45 0 0 1 0 .64l-65.28 70.44a.44.44 0 0 1 -.33.15z" fill="#fff"/><path d="m235 211.73a.44.44 0 0 1 -.32-.13.45.45 0 0 1 0-.64l50.79-52.09a.46.46 0 0 1 .66.64l-50.8 52.09a.44.44 0 0 1 -.33.13z" fill="#fff"/><path d="m248.21 94a.47.47 0 0 1 -.31-.12.46.46 0 0 1 0-.65l13.41-14.33a.46.46 0 0 1 .64 0 .47.47 0 0 1 0 .65l-13.41 14.3a.43.43 0 0 1 -.33.15z" fill="#fff"/><path d="m231.94 38.6h55.83a0 0 0 0 1 0 0v2.87a7.65 7.65 0 0 1 -7.65 7.65h-40.53a7.65 7.65 0 0 1 -7.65-7.65v-2.87a0 0 0 0 1 0 0z" fill="#231f20"/><rect fill="#939598" height="2.7" rx="1.35" width="17.83" x="249.31" y="41.48"/><circle cx="272.34" cy="42.83" fill="#939598" r="1.99"/><g fill="#231f20"><rect height="221.33" rx="12.08" transform="matrix(-1 0 0 -1 276.59 295.9)" width="105.91" x="85.34" y="37.28"/><path d="m179.17 37.28a12.08 12.08 0 0 1 12.08 12.08v197.17a12.08 12.08 0 0 1 -12.08 12.08h-81.75a12.08 12.08 0 0 1 -12.08-12.08v-197.17a12.08 12.08 0 0 1 12.08-12.08zm0-1h-81.75a13.08 13.08 0 0 0 -13.07 13.08v197.17a13.09 13.09 0 0 0 13.07 13.08h81.75a13.1 13.1 0 0 0 13.08-13.08v-197.17a13.09 13.09 0 0 0 -13.08-13.07z"/><path d="m192.17 75.71 1.4-.49v-9.84l-1.4-.49z"/><path d="m192.17 76.21a.49.49 0 0 1 -.5-.5v-10.82a.52.52 0 0 1 .21-.41.51.51 0 0 1 .45-.06l1.41.49a.5.5 0 0 1 .33.47v9.84a.5.5 0 0 1 -.33.47l-1.41.49a.41.41 0 0 1 -.16.03zm.5-10.62v9.41l.41-.15v-9.11z"/><path d="m84.9 113.92-1.41-1.27v-25.47l1.41-1.28z"/><path d="m84.9 114.42a.47.47 0 0 1 -.34-.13l-1.4-1.29a.5.5 0 0 1 -.17-.37v-25.45a.48.48 0 0 1 .17-.37l1.4-1.28a.51.51 0 0 1 .54-.08.49.49 0 0 1 .29.45v28a.5.5 0 0 1 -.29.46.51.51 0 0 1 -.2.06zm-.91-2 .41.37v-25.79l-.4.4z"/><path d="m192.17 101.59 1.4-.53v-15.04l-1.4-.54z"/><path d="m192.17 102.09a.47.47 0 0 1 -.28-.09.49.49 0 0 1 -.22-.41v-16.11a.5.5 0 0 1 .68-.46l1.4.53a.51.51 0 0 1 .32.47v15a.5.5 0 0 1 -.32.46l-1.4.54a.57.57 0 0 1 -.18.07zm.5-15.88v14.66l.41-.16v-14.35z"/><path d="m192.17 121.53 1.4-.53v-15.04l-1.4-.54z"/><path d="m192.17 122a.47.47 0 0 1 -.28-.09.49.49 0 0 1 -.22-.41v-16.08a.5.5 0 0 1 .68-.46l1.4.53a.51.51 0 0 1 .32.47v15a.5.5 0 0 1 -.32.46l-1.4.53a.39.39 0 0 1 -.18.05zm.5-15.88v14.66l.41-.16v-14.32z"/><path d="m192.17 101.59h.7v3.83h-.7z" transform="matrix(-1 0 0 -1 385.04 207.01)"/><rect height="4.83" rx=".5" width="1.7" x="191.67" y="101.09"/><rect height="40.43" rx="8.97" width="17.95" x="95.45" y="47.08"/></g><path d="m104.42 88a9.48 9.48 0 0 1 -9.42-9.46v-22.48a9.47 9.47 0 0 1 18.94 0v22.48a9.48 9.48 0 0 1 -9.52 9.46zm0-40.43a8.48 8.48 0 0 0 -8.42 8.49v22.48a8.48 8.48 0 0 0 17 0v-22.48a8.49 8.49 0 0 0 -8.58-8.48z" fill="#fff"/><circle cx="104.08" cy="55.26" fill="#231f20" r="3.75"/><path d="m104.08 59.51a4.25 4.25 0 1 1 4.25-4.25 4.25 4.25 0 0 1 -4.25 4.25zm0-7.5a3.26 3.26 0 1 0 3.25 3.25 3.26 3.26 0 0 0 -3.25-3.26z" fill="#fff"/><circle cx="104.08" cy="65.38" fill="#68e1fd" r="3.75"/><path d="m104.08 69.63a4.25 4.25 0 1 1 4.25-4.25 4.26 4.26 0 0 1 -4.25 4.25zm0-7.5a3.25 3.25 0 1 0 3.25 3.25 3.26 3.26 0 0 0 -3.25-3.25z" fill="#68e1fd"/><circle cx="104.08" cy="75.5" fill="#231f20" r="3.75"/><path d="m104.08 79.75a4.25 4.25 0 1 1 4.25-4.25 4.26 4.26 0 0 1 -4.25 4.25zm0-7.5a3.25 3.25 0 1 0 3.25 3.25 3.25 3.25 0 0 0 -3.25-3.25z" fill="#fff"/></svg>