<svg fill="none" height="24" viewBox="0 0 24 24" width="24" xmlns="http://www.w3.org/2000/svg" xmlns:xlink="http://www.w3.org/1999/xlink"><clipPath id="a"><path d="m0 0h24v24h-24z"/></clipPath><g clip-path="url(#a)" stroke="#000" stroke-linecap="round" stroke-linejoin="round"><path d="m2.01394 6.87134c-.66645 3.19046 1.84573 6.98836 5.00077 10.14336 3.15509 3.1551 6.95289 5.6673 10.14339 5.0008 2.6239-.5481 3.9634-1.9458 4.7173-3.1367.2601-.411.1288-.9444-.2611-1.2352l-3.6919-2.7539c-.3981-.2969-.9539-.2567-1.305.0945l-1.9597 1.9596s-1.9048-.6192-4.4289-3.1432c-2.52398-2.524-3.14316-4.42885-3.14316-4.42885l1.95965-1.95965c.35119-.35119.39142-.9069.09446-1.30501l-2.7539-3.69199c-.2908-.38985-.82422-.52115-1.23517-.26103-1.19098.75387-2.58865 2.0934-3.13674 4.71727z"/><path d="m19 10v-9m0 0-4 4m4-4 4 4"/></g></svg>